<?xml version="1.0" standalone="no"?>
<!DOCTYPE svg PUBLIC "-//W3C//DTD SVG 20010904//EN"
 "http://www.w3.org/TR/2001/REC-SVG-20010904/DTD/svg10.dtd">
<svg version="1.0" xmlns="http://www.w3.org/2000/svg"
 width="256.000000pt" height="256.000000pt" viewBox="0 0 256.000000 256.000000"
 preserveAspectRatio="xMidYMid meet">

<g transform="translate(0.000000,256.000000) scale(0.100000,-0.100000)"
fill="#000000" stroke="none">
<path d="M1645 2540 c-283 -59 -606 -221 -880 -443 -229 -185 -451 -460 -565
-700 -170 -358 -219 -743 -119 -940 40 -77 88 -127 261 -268 97 -79 179 -151
181 -161 15 -54 431 -25 655 47 42 14 86 25 96 25 11 0 27 6 35 13 9 8 41 24
71 36 30 13 79 36 107 52 29 16 58 29 64 29 6 0 21 9 33 20 11 10 66 52 121
93 127 93 196 157 308 282 157 177 300 411 384 629 75 196 133 482 133 654 0
79 -2 91 -20 103 -12 8 -94 108 -183 223 -161 209 -170 218 -279 276 -97 52
-244 63 -403 30z m339 -86 c66 -23 127 -86 157 -160 22 -54 24 -72 23 -229 -1
-158 -3 -178 -33 -290 -17 -66 -40 -138 -50 -160 -10 -22 -26 -62 -36 -90 -76
-212 -269 -493 -472 -685 -264 -250 -520 -398 -819 -474 -279 -71 -455 -50
-559 66 -63 71 -87 149 -87 293 0 258 107 578 282 845 282 429 825 809 1279
895 96 18 249 13 315 -11z m463 -617 c-4 -61 -9 -113 -13 -116 -3 -3 -49 38
-101 93 -87 90 -94 101 -89 128 3 17 6 82 6 146 l0 115 101 -128 102 -128 -6
-110z m-54 -195 l28 -21 -25 -106 c-15 -59 -30 -113 -34 -121 -5 -10 -34 12
-110 84 l-102 98 25 75 c13 40 29 93 35 116 l10 41 73 -72 c39 -40 85 -82 100
-94z m-84 -328 l24 -22 -58 -121 c-32 -67 -61 -121 -64 -121 -3 0 -52 44 -108
98 l-102 97 61 123 61 123 81 -78 c45 -42 92 -87 105 -99z m-139 -344 c0 -8
-66 -104 -123 -178 -39 -51 -40 -52 -60 -35 -22 20 -159 181 -171 200 -4 8 20
50 60 105 36 51 69 99 71 105 5 12 223 -182 223 -197z m-317 -181 l97 -111
-20 -28 c-22 -31 -128 -130 -138 -130 -4 0 -54 47 -112 105 l-105 105 85 85
c46 47 87 85 91 85 3 0 49 -50 102 -111z m-142 -341 c-16 -20 -155 -118 -168
-118 -15 0 -205 198 -201 209 1 5 41 39 88 75 l85 64 105 -106 c94 -95 104
-109 91 -124z m-342 -62 l103 -105 -97 -47 -97 -47 -99 99 c-54 54 -99 102
-99 106 0 3 9 10 21 13 11 4 51 24 87 46 37 21 69 39 72 39 3 0 52 -47 109
-104z m-275 -125 c54 -54 94 -101 90 -104 -12 -6 -169 -45 -214 -51 -33 -6
-40 -1 -129 84 -62 58 -90 91 -80 94 8 2 61 20 119 39 58 19 107 35 110 36 3
0 50 -43 104 -98z m-352 -85 l87 -84 -31 -6 c-17 -3 -68 -6 -113 -6 l-83 0
-101 81 c-56 44 -101 82 -101 84 0 2 24 1 53 -1 28 -3 79 -1 112 4 33 5 67 10
75 10 8 1 54 -36 102 -82z"/>
<path d="M1599 2330 c-141 -18 -386 -125 -556 -242 -284 -195 -544 -481 -674
-740 -207 -412 -192 -729 40 -830 59 -26 195 -35 287 -19 438 76 891 455 1144
956 134 267 185 540 129 691 -25 65 -77 127 -130 154 -32 17 -146 42 -174 39
-5 -1 -35 -5 -66 -9z m201 -102 c128 -65 151 -242 64 -506 -196 -598 -758
-1116 -1246 -1149 -191 -13 -283 50 -309 209 -27 166 65 446 222 680 242 360
654 681 984 768 103 28 228 26 285 -2z"/>
<path d="M1345 1914 c-94 -86 -94 -86 -147 -70 -53 16 -78 6 -78 -30 0 -16 8
-28 25 -36 14 -6 25 -14 24 -17 0 -3 -39 -40 -86 -81 -105 -92 -204 -203 -330
-372 -72 -97 -100 -127 -112 -122 -36 15 -52 16 -66 4 -21 -17 -19 -36 6 -59
24 -22 23 -27 -26 -94 -36 -51 -36 -77 1 -91 16 -6 28 4 97 88 23 28 26 29 56
17 17 -8 34 -17 37 -22 3 -5 -14 -36 -36 -70 -48 -69 -49 -109 -5 -109 19 0
36 16 76 70 28 39 52 70 54 70 2 0 32 -7 66 -16 162 -41 315 49 350 207 9 39
1 117 -16 161 -6 16 -1 17 52 12 116 -12 242 40 287 120 32 57 38 90 25 139
-11 40 -67 108 -99 119 -11 4 0 22 43 71 64 74 73 110 27 115 -20 2 -40 -13
-95 -68 -38 -38 -73 -70 -77 -70 -3 0 -18 4 -33 10 l-26 10 68 64 c58 55 66
67 57 83 -22 35 -55 26 -119 -33z m85 -237 c50 -25 69 -40 83 -69 16 -33 16
-40 4 -70 -51 -122 -235 -143 -430 -49 l-58 28 117 111 117 110 51 -14 c28 -8
80 -29 116 -47z m-380 -258 c24 -11 53 -28 63 -37 61 -55 80 -177 38 -245 -58
-95 -174 -116 -312 -58 -129 54 -129 38 -9 196 58 76 109 144 115 151 14 20
53 17 105 -7z"/>
</g>
</svg>
