<?xml version="1.0" standalone="no"?>
<!DOCTYPE svg PUBLIC "-//W3C//DTD SVG 20010904//EN"
 "http://www.w3.org/TR/2001/REC-SVG-20010904/DTD/svg10.dtd">
<svg version="1.0" xmlns="http://www.w3.org/2000/svg"
 width="256.000000pt" height="256.000000pt" viewBox="0 0 256.000000 256.000000"
 preserveAspectRatio="xMidYMid meet">
<metadata>
Created by potrace 1.14, written by Peter Selinger 2001-2017
</metadata>
<g transform="translate(0.000000,256.000000) scale(0.100000,-0.100000)"
fill="#000000" stroke="none">
<path d="M1655 2543 c-273 -49 -652 -241 -905 -458 -84 -72 -257 -246 -313
-315 -246 -304 -408 -712 -410 -1035 -1 -155 32 -273 99 -350 14 -16 29 -35
32 -41 4 -6 86 -76 182 -156 96 -80 180 -154 186 -164 10 -17 25 -19 160 -18
168 0 226 5 334 28 158 34 270 71 397 133 73 34 137 63 142 63 6 0 14 6 18 13
4 7 40 35 78 62 353 247 633 618 764 1010 39 120 73 250 86 335 4 25 9 54 11
64 6 33 18 189 18 232 0 33 -8 48 -42 85 -22 24 -91 109 -152 189 -61 80 -123
160 -138 179 -15 18 -31 40 -35 47 -4 8 -14 14 -21 14 -8 0 -37 15 -65 34 -93
63 -251 81 -426 49z m349 -102 c85 -42 137 -118 161 -239 10 -50 8 -199 -5
-277 -19 -121 -67 -298 -90 -330 -3 -5 -12 -30 -19 -55 -17 -59 -119 -254
-183 -349 -180 -269 -428 -500 -722 -674 -145 -85 -464 -182 -624 -190 -347
-18 -477 197 -386 637 18 88 77 270 115 355 27 60 127 241 138 251 3 3 21 28
40 55 46 66 186 228 253 290 276 260 599 451 892 526 116 30 169 37 275 34 80
-3 102 -8 155 -34z m346 -366 c52 -66 97 -121 101 -123 4 -2 6 -9 4 -15 -2 -7
-7 -52 -10 -102 -4 -49 -7 -96 -7 -102 -1 -7 -4 -13 -8 -13 -9 0 -115 106
-156 156 -33 40 -34 42 -26 106 5 36 7 101 5 143 -2 43 -1 76 0 74 2 -2 46
-58 97 -124z m-28 -369 l97 -93 -24 -94 c-39 -157 -25 -154 -142 -39 l-101
100 19 52 c10 29 25 79 34 111 8 31 17 57 18 57 1 0 46 -42 99 -94z m-18 -391
c11 -11 19 -27 18 -35 -6 -25 -105 -230 -112 -230 -3 0 -51 45 -106 99 l-101
99 61 121 60 121 79 -77 c44 -43 89 -87 101 -98z m-175 -303 l44 -40 -61 -88
c-34 -49 -72 -102 -85 -118 l-23 -28 -65 73 c-36 41 -80 93 -98 116 l-33 42
62 83 c34 46 67 93 73 106 10 22 12 21 76 -41 36 -36 86 -82 110 -105z m-305
-192 c37 -43 81 -93 97 -111 l30 -32 -23 -26 c-36 -41 -131 -131 -138 -131 -3
0 -53 47 -110 105 l-103 105 84 85 c46 47 87 85 90 85 3 0 36 -36 73 -80z
m-104 -361 c0 -8 -124 -100 -160 -119 -23 -12 -28 -9 -123 89 -54 56 -97 106
-95 110 2 5 41 37 88 73 l85 65 103 -105 c56 -59 102 -109 102 -113z m-355
-73 l102 -104 -41 -22 c-23 -12 -65 -33 -94 -46 l-52 -23 -100 101 -99 100 64
33 c35 18 74 40 87 49 12 9 24 16 27 16 2 0 50 -47 106 -104z m-271 -125 l98
-99 -33 -11 c-53 -17 -200 -49 -214 -47 -7 1 -54 40 -104 87 l-91 86 118 40
c64 22 119 41 122 42 3 0 50 -43 104 -98z m-417 -28 c127 -115 151 -141 135
-145 -9 -2 -62 -4 -117 -4 l-100 1 -80 65 c-128 103 -124 95 -47 94 54 0 138
7 173 15 3 0 19 -11 36 -26z"/>
<path d="M1628 2335 c-2 -1 -23 -5 -48 -9 -347 -45 -861 -423 -1123 -826 -234
-361 -300 -736 -159 -901 93 -108 256 -138 466 -85 237 61 439 175 646 365
326 300 573 765 584 1099 7 215 -98 343 -291 356 -39 2 -73 3 -75 1z m169
-106 c80 -38 116 -115 115 -244 -2 -295 -231 -733 -537 -1028 -79 -77 -230
-190 -322 -243 -191 -108 -450 -168 -577 -133 -130 36 -190 157 -165 333 19
136 42 209 109 351 132 283 388 566 695 772 157 106 363 196 478 209 29 4 53
8 55 9 10 9 114 -10 149 -26z"/>
<path d="M1415 1970 c-11 -5 -36 -23 -56 -42 -112 -103 -106 -100 -163 -83
-43 13 -48 13 -66 -5 -23 -23 -17 -46 17 -64 l25 -13 -48 -44 c-162 -147 -263
-261 -413 -467 -40 -54 -58 -71 -70 -66 -36 15 -52 16 -66 4 -21 -17 -19 -36
6 -61 l21 -21 -41 -60 c-23 -34 -41 -64 -41 -68 0 -4 9 -15 19 -24 26 -23 49
-11 96 54 20 27 41 50 46 50 8 0 29 -11 67 -36 2 -1 -15 -30 -38 -63 -32 -47
-41 -67 -36 -86 5 -19 13 -25 34 -25 21 0 33 10 55 43 15 23 38 55 51 70 l23
29 51 -15 c76 -23 157 -16 219 18 130 70 177 194 130 340 -6 19 -3 20 69 18
42 -1 95 4 118 11 140 42 217 176 164 281 -16 30 -70 85 -85 85 -21 0 -15 13
25 55 69 74 82 96 72 115 -21 39 -40 32 -119 -44 -66 -64 -80 -74 -103 -69
-33 6 -35 19 -9 42 92 80 103 93 97 116 -7 27 -24 35 -51 25z m52 -312 c66
-46 73 -111 17 -169 -73 -76 -232 -76 -395 0 l-60 28 67 64 c36 35 72 69 78
74 6 6 30 27 54 47 l42 38 82 -30 c45 -16 97 -40 115 -52z m-376 -263 c71 -46
104 -168 66 -241 -22 -43 -79 -91 -122 -103 -51 -14 -102 -6 -192 29 -132 50
-130 38 -23 181 51 68 105 138 118 155 l25 31 46 -14 c25 -7 62 -24 82 -38z"/>
</g>
</svg>
